# xmcd CD database file
#
# Track frame offsets:
#	150
#	32455
#	58030
#	84030
#	87410
#	114470
#	138467
#	173146
#	181700
#
# Disc length: 2749 seconds
#
# Revision: 0
# Processed by: cddbd v1.5.2PL0 Copyright (c) Steve Scherf et al.
# Submitted via: CDex 1.70beta3
#
DISCID=650abb09
DTITLE=Immigrant's Bossa Band - Message
DYEAR=2007
DGENRE=Jazz
TTITLE0=Message 
TTITLE1=Samba de flora
TTITLE2=Fleeting 
TTITLE3=interlude I 
TTITLE4=Way ahead
TTITLE5=Soul 4 Bossa 
TTITLE6=See things [in breezy Summer] 
TTITLE7=Outro 
TTITLE8=約束 [Sunaga t experience Remix] 
EXTD=YEAR: 2007
EXTT0=
EXTT1=
EXTT2=
EXTT3=
EXTT4=
EXTT5=
EXTT6=
EXTT7=
EXTT8=
PLAYORDER=
